<?xml version="1.0" standalone="no"?>
<!DOCTYPE svg PUBLIC "-//W3C//DTD SVG 20010904//EN"
 "http://www.w3.org/TR/2001/REC-SVG-20010904/DTD/svg10.dtd">
<svg version="1.0" xmlns="http://www.w3.org/2000/svg"
 width="157.000000pt" height="55.000000pt" viewBox="0 0 157.000000 55.000000"
 preserveAspectRatio="xMidYMid meet">

<g transform="translate(0.000000,55.000000) scale(0.100000,-0.100000)"
fill="#000000" stroke="none">
<path d="M240 336 c0 -9 7 -16 16 -16 17 0 14 22 -4 28 -7 2 -12 -3 -12 -12z"/>
<path d="M960 324 c0 -21 -3 -24 -20 -19 -29 9 -50 -12 -50 -51 0 -38 13 -49
57 -49 l33 0 0 73 c0 41 -4 72 -10 72 -5 0 -10 -12 -10 -26z m-6 -82 c-13 -20
-25 -20 -38 1 -7 10 -5 21 4 32 12 15 15 15 29 0 12 -12 13 -19 5 -33z"/>
<path d="M1080 327 c0 -20 -4 -24 -20 -20 -29 8 -50 -14 -50 -53 0 -38 18 -52
65 -49 l30 2 0 68 c0 46 -4 70 -12 73 -8 2 -13 -6 -13 -21z m-2 -69 c4 -33
-23 -45 -39 -17 -8 15 -7 24 2 35 17 20 33 12 37 -18z"/>
<path d="M180 284 l0 -56 -30 6 c-34 6 -40 -8 -11 -24 27 -14 37 -13 55 6 22
21 23 124 1 124 -12 0 -15 -13 -15 -56z"/>
<path d="M770 274 c-23 -68 -19 -96 7 -56 9 12 23 22 33 22 10 0 24 -10 33
-22 26 -40 30 -12 7 56 -30 90 -50 90 -80 0z m53 6 c4 -15 0 -20 -13 -20 -13
0 -17 5 -13 20 3 11 9 20 13 20 4 0 10 -9 13 -20z"/>
<path d="M242 259 c2 -30 8 -53 13 -51 15 3 12 95 -3 100 -10 3 -12 -9 -10
-49z"/>
<path d="M300 251 c0 -60 16 -61 22 -1 5 53 32 47 36 -7 4 -50 22 -58 22 -10
0 17 4 38 9 46 14 21 31 3 31 -33 0 -18 3 -36 6 -39 15 -14 20 4 15 50 l-6 48
-67 1 -68 0 0 -55z"/>
<path d="M472 256 c3 -59 21 -64 28 -10 7 54 28 55 32 2 4 -52 21 -53 28 -1 7
55 33 51 41 -7 6 -55 22 -32 17 26 l-3 39 -73 1 -73 0 3 -50z"/>
<path d="M640 302 c0 -6 9 -31 19 -55 16 -37 17 -48 7 -56 -7 -6 -16 -8 -19
-4 -4 3 -7 -1 -7 -10 0 -18 17 -22 37 -9 11 7 63 121 63 137 0 3 -5 5 -11 5
-5 0 -17 -17 -26 -37 l-16 -38 -12 34 c-11 33 -35 55 -35 33z"/>
<path d="M1145 294 c-23 -24 -15 -66 17 -83 24 -14 28 -14 47 3 25 23 27 58 5
80 -20 21 -48 20 -69 0z m53 -37 c3 -22 -1 -27 -17 -27 -15 0 -21 6 -21 23 0
46 33 49 38 4z"/>
<path d="M1253 294 c-8 -21 2 -89 12 -87 6 1 12 19 15 40 3 25 10 38 20 38 10
0 17 -13 20 -38 3 -21 10 -39 15 -40 14 -3 19 72 5 88 -13 16 -80 16 -87 -1z"/>
<path d="M1383 304 c-23 -10 -14 -44 13 -54 29 -11 24 -31 -6 -23 -25 7 -27
-14 -1 -22 41 -13 77 29 45 52 -10 7 -24 13 -31 13 -7 0 -13 5 -13 11 0 7 10
9 26 5 19 -5 25 -3 22 6 -5 14 -35 20 -55 12z"/>
</g>
</svg>
